<?xml version="1.0" encoding="UTF-8" standalone="no"?>
<!DOCTYPE svg PUBLIC "-//W3C//DTD SVG 1.1//EN"
 "http://www.w3.org/Graphics/SVG/1.1/DTD/svg11.dtd">
<!-- Generated by graphviz version 13.1.2 (20250808.2320)
 -->
<!-- Title: Cliente_leitor.cpp Pages: 1 -->
<svg width="550pt" height="83pt"
 viewBox="0.00 0.00 550.00 83.00" xmlns="http://www.w3.org/2000/svg" xmlns:xlink="http://www.w3.org/1999/xlink">
<g id="graph0" class="graph" transform="scale(1 1) rotate(0) translate(4 78.5)">
<title>Cliente_leitor.cpp</title>
<!-- Node1 -->
<g id="Node000001" class="node">
<title>Node1</title>
<g id="a_Node000001"><a xlink:title=" ">
<polygon fill="#999999" stroke="#666666" points="296,-74.5 205,-74.5 205,-55.25 296,-55.25 296,-74.5"/>
<text xml:space="preserve" text-anchor="middle" x="250.5" y="-61" font-family="Helvetica,sans-Serif" font-size="10.00">Cliente_leitor.cpp</text>
</a>
</g>
</g>
<!-- Node2 -->
<g id="Node000002" class="node">
<title>Node2</title>
<g id="a_Node000002"><a xlink:title=" ">
<polygon fill="#e0e0e0" stroke="#999999" points="49,-19.25 0,-19.25 0,0 49,0 49,-19.25"/>
<text xml:space="preserve" text-anchor="middle" x="24.5" y="-5.75" font-family="Helvetica,sans-Serif" font-size="10.00">fstream</text>
</a>
</g>
</g>
<!-- Node1&#45;&gt;Node2 -->
<g id="edge1_Node000001_Node000002" class="edge">
<title>Node1&#45;&gt;Node2</title>
<g id="a_edge1_Node000001_Node000002"><a xlink:title=" ">
<path fill="none" stroke="#63b8ff" d="M209.76,-54.81C173.01,-46.55 117.2,-33.82 60.35,-19.9"/>
<polygon fill="#63b8ff" stroke="#63b8ff" points="61.36,-16.55 50.82,-17.56 59.69,-23.35 61.36,-16.55"/>
</a>
</g>
</g>
<!-- Node3 -->
<g id="Node000003" class="node">
<title>Node3</title>
<g id="a_Node000003"><a xlink:title=" ">
<polygon fill="#e0e0e0" stroke="#999999" points="120.25,-19.25 66.75,-19.25 66.75,0 120.25,0 120.25,-19.25"/>
<text xml:space="preserve" text-anchor="middle" x="93.5" y="-5.75" font-family="Helvetica,sans-Serif" font-size="10.00">iostream</text>
</a>
</g>
</g>
<!-- Node1&#45;&gt;Node3 -->
<g id="edge2_Node000001_Node000003" class="edge">
<title>Node1&#45;&gt;Node3</title>
<g id="a_edge2_Node000001_Node000003"><a xlink:title=" ">
<path fill="none" stroke="#63b8ff" d="M223.87,-54.84C198.38,-46.2 159.69,-33.07 131.07,-23.37"/>
<polygon fill="#63b8ff" stroke="#63b8ff" points="132.29,-20.09 121.7,-20.19 130.04,-26.72 132.29,-20.09"/>
</a>
</g>
</g>
<!-- Node4 -->
<g id="Node000004" class="node">
<title>Node4</title>
<g id="a_Node000004"><a xlink:title=" ">
<polygon fill="#e0e0e0" stroke="#999999" points="178.5,-19.25 138.5,-19.25 138.5,0 178.5,0 178.5,-19.25"/>
<text xml:space="preserve" text-anchor="middle" x="158.5" y="-5.75" font-family="Helvetica,sans-Serif" font-size="10.00">string</text>
</a>
</g>
</g>
<!-- Node1&#45;&gt;Node4 -->
<g id="edge3_Node000001_Node000004" class="edge">
<title>Node1&#45;&gt;Node4</title>
<g id="a_edge3_Node000001_Node000004"><a xlink:title=" ">
<path fill="none" stroke="#63b8ff" d="M234.89,-54.84C220.88,-46.73 200.07,-34.68 183.7,-25.21"/>
<polygon fill="#63b8ff" stroke="#63b8ff" points="185.9,-22.44 175.49,-20.46 182.39,-28.5 185.9,-22.44"/>
</a>
</g>
</g>
<!-- Node5 -->
<g id="Node000005" class="node">
<title>Node5</title>
<g id="a_Node000005"><a xlink:title=" ">
<polygon fill="#e0e0e0" stroke="#999999" points="240,-19.25 197,-19.25 197,0 240,0 240,-19.25"/>
<text xml:space="preserve" text-anchor="middle" x="218.5" y="-5.75" font-family="Helvetica,sans-Serif" font-size="10.00">thread</text>
</a>
</g>
</g>
<!-- Node1&#45;&gt;Node5 -->
<g id="edge4_Node000001_Node000005" class="edge">
<title>Node1&#45;&gt;Node5</title>
<g id="a_edge4_Node000001_Node000005"><a xlink:title=" ">
<path fill="none" stroke="#63b8ff" d="M245.22,-55.08C241.03,-48.11 235.02,-38.12 229.77,-29.37"/>
<polygon fill="#63b8ff" stroke="#63b8ff" points="232.83,-27.68 224.68,-20.91 226.83,-31.28 232.83,-27.68"/>
</a>
</g>
</g>
<!-- Node6 -->
<g id="Node000006" class="node">
<title>Node6</title>
<g id="a_Node000006"><a xlink:title=" ">
<polygon fill="#e0e0e0" stroke="#999999" points="308.75,-19.25 258.25,-19.25 258.25,0 308.75,0 308.75,-19.25"/>
<text xml:space="preserve" text-anchor="middle" x="283.5" y="-5.75" font-family="Helvetica,sans-Serif" font-size="10.00">unistd.h</text>
</a>
</g>
</g>
<!-- Node1&#45;&gt;Node6 -->
<g id="edge5_Node000001_Node000006" class="edge">
<title>Node1&#45;&gt;Node6</title>
<g id="a_edge5_Node000001_Node000006"><a xlink:title=" ">
<path fill="none" stroke="#63b8ff" d="M255.95,-55.08C260.27,-48.11 266.46,-38.12 271.88,-29.37"/>
<polygon fill="#63b8ff" stroke="#63b8ff" points="274.84,-31.24 277.14,-20.9 268.89,-27.55 274.84,-31.24"/>
</a>
</g>
</g>
<!-- Node7 -->
<g id="Node000007" class="node">
<title>Node7</title>
<g id="a_Node000007"><a xlink:title=" ">
<polygon fill="#e0e0e0" stroke="#999999" points="388.38,-19.25 326.62,-19.25 326.62,0 388.38,0 388.38,-19.25"/>
<text xml:space="preserve" text-anchor="middle" x="357.5" y="-5.75" font-family="Helvetica,sans-Serif" font-size="10.00">arpa/inet.h</text>
</a>
</g>
</g>
<!-- Node1&#45;&gt;Node7 -->
<g id="edge6_Node000001_Node000007" class="edge">
<title>Node1&#45;&gt;Node7</title>
<g id="a_edge6_Node000001_Node000007"><a xlink:title=" ">
<path fill="none" stroke="#63b8ff" d="M268.65,-54.84C285.18,-46.62 309.84,-34.34 329,-24.81"/>
<polygon fill="#63b8ff" stroke="#63b8ff" points="330.51,-27.97 337.9,-20.38 327.39,-21.7 330.51,-27.97"/>
</a>
</g>
</g>
<!-- Node8 -->
<g id="Node000008" class="node">
<title>Node8</title>
<g id="a_Node000008"><a xlink:title=" ">
<polygon fill="#e0e0e0" stroke="#999999" points="478.62,-19.25 406.38,-19.25 406.38,0 478.62,0 478.62,-19.25"/>
<text xml:space="preserve" text-anchor="middle" x="442.5" y="-5.75" font-family="Helvetica,sans-Serif" font-size="10.00">sys/socket.h</text>
</a>
</g>
</g>
<!-- Node1&#45;&gt;Node8 -->
<g id="edge7_Node000001_Node000008" class="edge">
<title>Node1&#45;&gt;Node8</title>
<g id="a_edge7_Node000001_Node000008"><a xlink:title=" ">
<path fill="none" stroke="#63b8ff" d="M283.07,-54.84C314.93,-46.01 363.66,-32.49 398.86,-22.73"/>
<polygon fill="#63b8ff" stroke="#63b8ff" points="399.61,-26.15 408.31,-20.11 397.74,-19.41 399.61,-26.15"/>
</a>
</g>
</g>
<!-- Node9 -->
<g id="Node000009" class="node">
<title>Node9</title>
<g id="a_Node000009"><a xlink:title=" ">
<polygon fill="#e0e0e0" stroke="#999999" points="542.12,-19.25 496.88,-19.25 496.88,0 542.12,0 542.12,-19.25"/>
<text xml:space="preserve" text-anchor="middle" x="519.5" y="-5.75" font-family="Helvetica,sans-Serif" font-size="10.00">cstring</text>
</a>
</g>
</g>
<!-- Node1&#45;&gt;Node9 -->
<g id="edge8_Node000001_Node000009" class="edge">
<title>Node1&#45;&gt;Node9</title>
<g id="a_edge8_Node000001_Node000009"><a xlink:title=" ">
<path fill="none" stroke="#63b8ff" d="M296.15,-56.36C341.7,-48.62 413.89,-35.7 485.47,-19.57"/>
<polygon fill="#63b8ff" stroke="#63b8ff" points="486.03,-23.03 495.01,-17.39 484.48,-16.2 486.03,-23.03"/>
</a>
</g>
</g>
</g>
</svg>
