<?xml version="1.0" encoding="UTF-8" standalone="no"?>
<!DOCTYPE svg PUBLIC "-//W3C//DTD SVG 1.1//EN"
 "http://www.w3.org/Graphics/SVG/1.1/DTD/svg11.dtd">
<!-- Generated by graphviz version 13.1.2 (20250808.2320)
 -->
<!-- Title: FlameSensor Pages: 1 -->
<svg width="121pt" height="115pt"
 viewBox="0.00 0.00 121.00 115.00" xmlns="http://www.w3.org/2000/svg" xmlns:xlink="http://www.w3.org/1999/xlink">
<g id="graph0" class="graph" transform="scale(1 1) rotate(0) translate(4 110.75)">
<title>FlameSensor</title>
<!-- Node1 -->
<g id="Node000001" class="node">
<title>Node1</title>
<g id="a_Node000001"><a xlink:title="Cria a classe do sensor de chama.">
<polygon fill="#999999" stroke="none" points="113.25,-106.75 0,-106.75 0,0 113.25,0 113.25,-106.75"/>
<text xml:space="preserve" text-anchor="start" x="27.75" y="-93.25" font-family="Helvetica,sans-Serif" font-size="10.00">FlameSensor</text>
<text xml:space="preserve" text-anchor="start" x="5.5" y="-78" font-family="Helvetica,sans-Serif" font-size="10.00">&#45;</text>
<text xml:space="preserve" text-anchor="start" x="14" y="-78" font-family="Helvetica,sans-Serif" font-size="10.00">string path</text>
<text xml:space="preserve" text-anchor="start" x="4" y="-62.75" font-family="Helvetica,sans-Serif" font-size="10.00">+</text>
<text xml:space="preserve" text-anchor="start" x="14" y="-62.75" font-family="Helvetica,sans-Serif" font-size="10.00">FlameSensor(const</text>
<text xml:space="preserve" text-anchor="start" x="14" y="-51.5" font-family="Helvetica,sans-Serif" font-size="10.00"> std::string &amp;adcPath)</text>
<text xml:space="preserve" text-anchor="start" x="4" y="-36.25" font-family="Helvetica,sans-Serif" font-size="10.00">+</text>
<text xml:space="preserve" text-anchor="start" x="14" y="-36.25" font-family="Helvetica,sans-Serif" font-size="10.00">string StatusValue()</text>
<text xml:space="preserve" text-anchor="start" x="4" y="-21" font-family="Helvetica,sans-Serif" font-size="10.00">+</text>
<text xml:space="preserve" text-anchor="start" x="14" y="-21" font-family="Helvetica,sans-Serif" font-size="10.00">bool lerSensor()</text>
<text xml:space="preserve" text-anchor="start" x="4" y="-5.75" font-family="Helvetica,sans-Serif" font-size="10.00">+</text>
<text xml:space="preserve" text-anchor="start" x="14" y="-5.75" font-family="Helvetica,sans-Serif" font-size="10.00">string Status()</text>
<polygon fill="#666666" stroke="#666666" points="0,-89.5 0,-89.5 113.25,-89.5 113.25,-89.5 0,-89.5"/>
<polygon fill="#666666" stroke="#666666" points="0,-74.25 0,-74.25 12,-74.25 12,-74.25 0,-74.25"/>
<polygon fill="#666666" stroke="#666666" points="12,-74.25 12,-74.25 113.25,-74.25 113.25,-74.25 12,-74.25"/>
<polygon fill="none" stroke="#666666" points="0,0 0,-106.75 113.25,-106.75 113.25,0 0,0"/>
</a>
</g>
</g>
</g>
</svg>
